<svg xmlns="http://www.w3.org/2000/svg" viewBox="0 0 1200 760" role="img" aria-labelledby="title desc">
  <title id="title">Atlas Ops slide two</title>
  <desc id="desc">Scheduling and task management interface with columns and side panels.</desc>
  <rect width="1200" height="760" rx="40" fill="#efeadf" />
  <rect x="52" y="52" width="1096" height="656" rx="30" fill="#f8f4ed" />
  <rect x="92" y="92" width="220" height="576" rx="24" fill="#1d4d55" />
  <rect x="344" y="92" width="220" height="576" rx="24" fill="#e8dcc6" />
  <rect x="596" y="92" width="220" height="576" rx="24" fill="#f1c48e" />
  <rect x="848" y="92" width="260" height="576" rx="24" fill="#17343a" />
  <rect x="128" y="136" width="148" height="16" rx="8" fill="#fffaf3" opacity="0.72" />
  <rect x="128" y="188" width="148" height="118" rx="20" fill="#fffaf3" opacity="0.14" />
  <rect x="380" y="136" width="148" height="16" rx="8" fill="#17343a" opacity="0.22" />
  <rect x="380" y="188" width="148" height="118" rx="20" fill="#fffaf3" opacity="0.72" />
  <rect x="632" y="136" width="148" height="16" rx="8" fill="#17343a" opacity="0.18" />
  <rect x="632" y="188" width="148" height="118" rx="20" fill="#fffaf3" opacity="0.42" />
  <rect x="884" y="136" width="184" height="16" rx="8" fill="#fffaf3" opacity="0.72" />
  <rect x="884" y="188" width="184" height="168" rx="24" fill="#fffaf3" opacity="0.1" />
</svg>
