<svg xmlns="http://www.w3.org/2000/svg" viewBox="0 0 1200 760" role="img" aria-labelledby="title desc">
  <title id="title">Atlas Ops slide one</title>
  <desc id="desc">Operations dashboard with charts, tables, and route KPIs.</desc>
  <rect width="1200" height="760" rx="40" fill="#17343a" />
  <rect x="56" y="56" width="1088" height="648" rx="28" fill="#0f2529" />
  <rect x="92" y="92" width="1016" height="78" rx="22" fill="#1f5057" />
  <rect x="124" y="122" width="210" height="16" rx="8" fill="#e9f4f5" opacity="0.7" />
  <rect x="92" y="198" width="258" height="228" rx="24" fill="#224e57" />
  <rect x="374" y="198" width="430" height="228" rx="24" fill="#efe6d4" />
  <rect x="828" y="198" width="280" height="228" rx="24" fill="#d98339" />
  <rect x="92" y="452" width="614" height="214" rx="24" fill="#efe6d4" />
  <rect x="732" y="452" width="376" height="214" rx="24" fill="#224e57" />
  <circle cx="1030" cy="278" r="74" fill="#f3c994" opacity="0.88" />
  <rect x="410" y="238" width="352" height="18" rx="9" fill="#163338" opacity="0.16" />
  <rect x="410" y="278" width="120" height="112" rx="18" fill="#1f5057" opacity="0.85" />
  <rect x="552" y="278" width="210" height="112" rx="18" fill="#d7ccb7" />
</svg>
