<svg xmlns="http://www.w3.org/2000/svg" viewBox="0 0 1200 760" role="img" aria-labelledby="title desc">
  <title id="title">Signal Studio slide one</title>
  <desc id="desc">Editorial homepage concept with oversized type and modular cards.</desc>
  <defs>
    <linearGradient id="bg" x1="0%" y1="0%" x2="100%" y2="100%">
      <stop offset="0%" stop-color="#1b5f67" />
      <stop offset="100%" stop-color="#f1c07d" />
    </linearGradient>
  </defs>
  <rect width="1200" height="760" rx="40" fill="url(#bg)" />
  <rect x="56" y="56" width="1088" height="648" rx="28" fill="#fff7ed" opacity="0.92" />
  <rect x="96" y="110" width="160" height="18" rx="9" fill="#1b5f67" opacity="0.25" />
  <rect x="96" y="168" width="432" height="90" rx="18" fill="#16393d" />
  <rect x="96" y="284" width="310" height="18" rx="9" fill="#16393d" opacity="0.28" />
  <rect x="96" y="316" width="280" height="18" rx="9" fill="#16393d" opacity="0.18" />
  <rect x="96" y="374" width="172" height="52" rx="26" fill="#d4752f" />
  <rect x="676" y="136" width="372" height="404" rx="30" fill="#f1c07d" />
  <rect x="728" y="192" width="268" height="18" rx="9" fill="#16393d" opacity="0.22" />
  <rect x="728" y="234" width="216" height="132" rx="22" fill="#fff7ed" opacity="0.75" />
  <rect x="728" y="390" width="216" height="18" rx="9" fill="#16393d" opacity="0.22" />
  <rect x="728" y="424" width="168" height="18" rx="9" fill="#16393d" opacity="0.16" />
  <rect x="96" y="510" width="226" height="136" rx="26" fill="#1b5f67" opacity="0.9" />
  <rect x="346" y="510" width="226" height="136" rx="26" fill="#efdbbd" />
  <rect x="596" y="510" width="226" height="136" rx="26" fill="#d4752f" opacity="0.88" />
</svg>
